<?xml version="1.0" standalone="no"?>
<!DOCTYPE svg PUBLIC "-//W3C//DTD SVG 20010904//EN"
 "http://www.w3.org/TR/2001/REC-SVG-20010904/DTD/svg10.dtd">
<svg version="1.0" xmlns="http://www.w3.org/2000/svg"
 width="96.000000pt" height="96.000000pt" viewBox="0 0 96.000000 96.000000"
 preserveAspectRatio="xMidYMid meet">
<metadata>
Created by potrace 1.11, written by Peter Selinger 2001-2013
</metadata>
<g transform="translate(0.000000,96.000000) scale(0.100000,-0.100000)"
fill="#000000" stroke="none">
<path d="M25 934 c-27 -29 -30 -49 -16 -87 11 -29 61 -52 96 -43 24 6 55 51
55 81 0 25 47 18 66 -10 25 -38 13 -100 -62 -324 -35 -106 -64 -195 -64 -196
0 -5 72 -46 74 -43 1 2 9 30 18 63 9 33 39 127 67 210 28 82 54 174 58 204 l6
54 18 -34 c46 -86 77 -247 93 -482 2 -21 5 -22 46 -10 9 2 36 -14 62 -36 l46
-41 17 28 c28 44 75 81 112 88 41 8 53 -4 53 -54 l0 -33 40 28 c22 16 40 36
40 47 0 10 -34 91 -76 179 -65 135 -75 164 -68 186 8 21 17 27 50 29 38 3 42
1 47 -25 9 -43 28 -63 67 -69 29 -5 40 -1 64 21 24 22 28 32 23 62 -3 19 -11
41 -18 49 -16 20 -76 29 -94 14 -11 -9 -26 -6 -71 16 -69 33 -149 42 -190 21
-42 -21 -62 -48 -88 -110 l-22 -55 -17 67 c-23 87 -75 180 -118 209 -37 26
-87 28 -151 6 -31 -11 -42 -11 -65 1 -41 22 -71 18 -98 -11z"/>
<path d="M905 319 c-16 -5 -55 -31 -84 -59 -30 -27 -58 -50 -63 -50 -6 0 -14
29 -22 85 -7 51 -79 7 -115 -70 -12 -25 -24 -45 -28 -45 -4 0 -31 23 -60 52
l-53 52 -53 -52 c-29 -29 -56 -52 -59 -52 -4 0 -16 19 -27 43 -24 51 -39 70
-68 85 -30 16 -28 18 -48 -35 -10 -27 -19 -50 -21 -52 -2 -2 -23 16 -47 41
-42 43 -76 58 -134 58 l-25 0 20 -33 c11 -17 30 -63 42 -102 13 -38 30 -78 39
-89 100 -114 623 -123 744 -13 27 25 41 51 61 119 15 48 31 90 36 93 12 7 14
35 3 34 -5 0 -21 -5 -38 -10z"/>
</g>
</svg>
